<svg id="Icon_Set" data-name="Icon Set" xmlns="http://www.w3.org/2000/svg" viewBox="0 0 168 168"><defs><style>.cls-1,.cls-2{fill:none;stroke-linecap:round;stroke-linejoin:round;stroke-width:3px;}.cls-1{stroke:#5b0ca6;}.cls-2{stroke:#ecab14;}</style></defs><title>Artboard 12 copy</title><path class="cls-1" d="M121.49,90.36V76.63h5.38A5.38,5.38,0,0,1,132.24,82"/><path class="cls-1" d="M153.7,101.24a106.92,106.92,0,0,1-5.08,30,54.55,54.55,0,0,0-1.49,5.6H124"/><path class="cls-1" d="M121.49,76.63V62.35A5.38,5.38,0,0,0,116.11,57h0a5.38,5.38,0,0,0-5.38,5.38v39.8L107,92.5a6.37,6.37,0,0,0-5.95-4.09h0a6.37,6.37,0,0,0-6.37,6.37h0a35.71,35.71,0,0,0,5,18.35,41.2,41.2,0,0,0,4.58,6.3c6.61,7.38,8.35,17.39,8.35,17.39"/><path class="cls-1" d="M132.24,94.37V80.64h5.38A5.38,5.38,0,0,1,143,86V99"/><path class="cls-1" d="M143,87.51h5.38a5.38,5.38,0,0,1,5.38,5.38v8.35"/><rect class="cls-1" x="108.42" y="144.05" width="41.68" height="16.54"/><circle class="cls-1" cx="140.84" cy="152.32" r="1.56"/><path class="cls-1" d="M96.86,153.88H21.41A6.93,6.93,0,0,1,14.48,147V19.18a6.93,6.93,0,0,1,6.93-6.93h103.9a6.93,6.93,0,0,1,6.93,6.93V67.5"/><line class="cls-1" x1="25.02" y1="37.66" x2="60.86" y2="37.66"/><line class="cls-1" x1="25.02" y1="62.33" x2="43.35" y2="62.33"/><line class="cls-1" x1="83.65" y1="62.33" x2="101.3" y2="62.33"/><path class="cls-2" d="M55.62,55.68h0a4.16,4.16,0,0,1,4.16,4.16v5A4.16,4.16,0,0,1,55.62,69h0a4.16,4.16,0,0,1-4.16-4.16"/><path class="cls-2" d="M71.51,55.68h0a4.16,4.16,0,0,1,4.16,4.16v5A4.16,4.16,0,0,1,71.51,69h0a4.16,4.16,0,0,1-4.16-4.16"/><path class="cls-2" d="M72.62,31h0a4.16,4.16,0,0,1,4.16,4.16v5a4.16,4.16,0,0,1-4.16,4.16h0a4.16,4.16,0,0,1-4.16-4.16"/><path class="cls-2" d="M88.52,31h0a4.16,4.16,0,0,1,4.16,4.16v5a4.16,4.16,0,0,1-4.16,4.16h0a4.16,4.16,0,0,1-4.16-4.16"/><path class="cls-2" d="M104.41,31h0a4.16,4.16,0,0,1,4.16,4.16v5a4.16,4.16,0,0,1-4.16,4.16h0a4.16,4.16,0,0,1-4.16-4.16"/><path class="cls-2" d="M45.08,82.53h0a4.16,4.16,0,0,1,4.16,4.16v5a4.16,4.16,0,0,1-4.16,4.16h0a4.16,4.16,0,0,1-4.16-4.16"/><path class="cls-2" d="M61,82.53h0a4.16,4.16,0,0,1,4.16,4.16v5A4.16,4.16,0,0,1,61,95.83h0a4.16,4.16,0,0,1-4.16-4.16"/><line class="cls-1" x1="72.62" y1="89.18" x2="86.7" y2="89.18"/><line class="cls-1" x1="25.02" y1="89.18" x2="34.18" y2="89.18"/></svg>