<svg id="Icon_Set" data-name="Icon Set" xmlns="http://www.w3.org/2000/svg" viewBox="0 0 168 168"><defs><style>.cls-1{fill:none;stroke:#5b0ca6;stroke-linecap:round;stroke-miterlimit:10;stroke-width:3px;}</style></defs><title>Artboard 12 copy 5</title><path class="cls-1" d="M100.32,100.34,97.88,88.13a12,12,0,0,0-4.13-6.9,9.84,9.84,0,0,0-4-2.12l-10.43-3a2.27,2.27,0,0,1-1.62-1.92L77.17,70a17.79,17.79,0,0,0,6.12-9.62c1.86-.17,3.29-2.24,3.29-4.85,0-2.42-1.21-4.37-2.87-4.78"/><path class="cls-1" d="M54.27,50.81c-1.61.46-2.78,2.39-2.78,4.76,0,2.61,1.42,4.68,3.28,4.85A17.87,17.87,0,0,0,60.89,70l-.48,4.13a2.27,2.27,0,0,1-1.62,1.92l-10.4,3a9.85,9.85,0,0,0-4.08,2.13,12,12,0,0,0-4.13,6.9l-2.44,12.21"/><path class="cls-1" d="M83.71,50.78S84.57,33.5,69,33.5,54.27,50.81,54.27,50.81"/><path class="cls-1" d="M55.38,43.38a5.55,5.55,0,0,1,3.08-2.66c2.11-.77,4.46-.15,6.5.78,2.94,1.34,5.51,2.92,8.81,3.29a15.11,15.11,0,0,0,8.85-1.44"/><line class="cls-1" x1="59.43" y1="75.78" x2="69.03" y2="85.74"/><line class="cls-1" x1="78.63" y1="75.78" x2="69.03" y2="85.74"/><line class="cls-1" x1="69.03" y1="85.74" x2="69.03" y2="92.29"/><circle class="cls-1" cx="69.03" cy="70.73" r="58.35"/><path class="cls-1" d="M70.59,139.08a66.81,66.81,0,0,0,66.81-66.81"/><path class="cls-1" d="M123,113.74l31.17,31.17a7.72,7.72,0,0,1,0,10.92h0a7.72,7.72,0,0,1-10.92,0L112,124.66"/></svg>